<svg xmlns="http://www.w3.org/2000/svg" width="193" height="83" viewBox="0 0 193 83">
  <g fill="none" fill-rule="evenodd">
    <path fill="#FFF" d="M15.8466949 2.84217094e-14C18.7926346 8.95765168 17.347299 16.5241489 11.5106881 22.6994917 5.02049835 30.3133593 5.1996354 34.3200581 5.74518915 37.8951994 8.39313545 34.3585997 5.3424022 38.53955 11.5106881 30.940339 17.678974 23.3411281 17.9945576 20.6981245 18.85965 15.8114006 18.85965 25.4945726 16.6392407 30.1135944 13.7488156 34.1268072 10.8583905 38.1400201 4.51565756 45.8895976 9.68045843 59.282109 3.54579788 56.5925977 1.35139268 50.9096779 3.09724286 42.2333496-1.972844 34.2833692-.818254124 27.4600748 6.56101247 21.7634663 13.9402791 16.0668578 17.0355065 8.81236903 15.8466949 2.84217094e-14zM15.5511889 36.6210545C22.0296169 36.6210545 27.9119919 51.9805392 18.2767731 60.6891133 11.8532939 66.4948293 8.04804651 74.0794217 6.86103091 83.4428906 5.1856141 74.8061843 7.37563391 66.8698891 13.4310904 59.6340049 22.514275 48.7801787 18.0481438 42.0466201 15.5511889 36.6210545zM55.1424034 53.2836052L55.1424034 29.2763948C55.1424034 27.0796567 55.103176 25.9028326 54.9070386 23.5099571 56.2015451 23.6276395 57.1822318 23.7453219 57.8098712 23.8237768 60.5165665 24.0591416 61.144206 24.2160515 61.144206 24.6867811 61.144206 25.0398283 60.7127039 25.2751931 59.3397425 25.7066953 60.0850644 30.884721 61.2618884 34.8074678 63.0663519 38.3771674 64.2039485 37.004206 65.0669528 35.8666094 65.6553648 34.9643777 67.2244635 32.6891845 68.0482403 31.1200858 68.8327897 29.119485 71.2256652 30.5316738 73.304721 31.8654077 74.0892704 32.4538197 74.3246352 32.6499571 74.4423176 32.806867 74.4423176 32.9637768 74.4423176 33.316824 74.0500429 33.4737339 73.3439485 33.4737339 73.2654936 33.4737339 72.716309 33.4345064 72.3632618 33.4345064 69.028927 36.1804292 67.0283262 37.5141631 63.6155365 39.3970815 64.9884979 41.868412 66.7145064 43.9866953 68.7543348 45.7519313 70.872618 47.5956223 72.6770815 48.6155365 76.0506438 49.9100429L76.0114163 50.42C74.4815451 50.9299571 73.7754506 51.4791416 73.0693562 52.7344206 72.7947639 53.2051502 72.5986266 53.7151073 72.4417167 54.3035193 72.3240343 54.7350215 72.1671245 54.9311588 71.9709871 54.9311588 71.6571674 54.9311588 70.9903004 54.4604292 69.8919313 53.440515 65.8907296 49.831588 62.987897 45.0066094 61.3403433 39.2401717 60.6734764 36.8472961 60.3596567 35.3566524 59.2220601 28.7272103L59.4181974 43.3198283 59.6535622 54.6173391 59.6535622 55.0488412C59.6535622 56.7356223 59.0259227 57.716309 57.456824 58.4224034 56.4369099 58.8539056 54.9462661 59.2069528 53.9263519 59.2069528 53.3771674 59.2069528 53.2987124 59.0892704 53.259485 58.3439485 53.18103 57.3632618 52.7103004 56.6179399 51.8080687 55.9903004 50.8666094 55.3234335 49.572103 54.9311588 46.5908155 54.3035193L46.6300429 53.7543348C51.8080687 54.028927 51.8080687 54.028927 54.3970815 54.0681545 54.9854936 54.028927 55.1424034 53.8720172 55.1424034 53.2836052zM39.843691 35.6312446L39.5690987 34.1798283C40.8636052 34.4936481 40.9028326 34.4936481 42.6288412 34.4936481L48.1991416 34.4936481C49.2582833 33.3560515 49.572103 33.0030043 50.5527897 31.8654077 52.0826609 33.0422318 52.5533906 33.4345064 54.0440343 34.6113305 54.3970815 34.9251502 54.5147639 35.1212876 54.5147639 35.3174249 54.5147639 35.6312446 54.0832618 35.9450644 52.9456652 36.3373391 50.8666094 42.535279 49.4936481 45.2812017 46.8654077 48.4586266 44.6686695 51.086867 42.3542489 53.0090129 38.3138197 55.5980258L38 55.1665236C40.9028326 52.1067811 42.6288412 49.831588 44.1979399 46.9287554 46.0024034 43.6336481 47.2969099 40.024721 48.3560515 35.3958798L42.5896137 35.3958798C41.2951073 35.3958798 40.7459227 35.4351073 39.843691 35.6312446zM103.706009 44.300515L89.3487554 44.300515C88.7995708 48.2232618 87.4658369 51.5183691 85.2298712 54.4212017 83.7 56.3825751 82.2093562 57.7555365 79.7772532 59.4030901L79.5026609 59.0892704C82.2878112 55.3626609 83.5823176 52.4598283 84.4060944 48.1055794 85.0729614 44.6927897 85.2690987 41.5545923 85.2690987 33.983691 85.2690987 28.7664378 85.2298712 26.4912446 85.0337339 23.0784549 87.5050644 24.176824 88.2503863 24.5298712 90.4863519 25.7459227L103.392189 25.7459227C104.372876 24.6083262 104.647468 24.2945064 105.706609 23.1961373 107.275708 24.255279 107.70721 24.6083262 109.197854 25.6674678 109.590129 25.9812876 109.747039 26.1774249 109.747039 26.3735622 109.747039 26.7266094 109.393991 27.0012017 108.295622 27.5503863L108.295622 41.0838627C108.295622 44.7712446 108.33485 48.8116738 108.452532 54.1858369 108.452532 55.5587983 108.33485 56.1472103 107.942575 56.7356223 107.275708 57.716309 105.863519 58.383176 103.784464 58.7362232 103.274506 58.8539056 102.764549 58.893133 102.489957 58.893133 102.058455 58.893133 101.98 58.7754506 101.901545 58.1870386 101.783863 57.0102146 101.156223 56.1864378 99.7832618 55.5587983 98.8418026 55.1272961 97.5865236 54.7742489 94.4090987 54.1466094L94.4483262 53.6366524C97.7434335 53.8327897 98.4495279 53.8720172 102.882232 53.9896996 103.549099 53.9896996 103.706009 53.8720172 103.706009 53.3228326L103.706009 44.300515zM103.706009 43.4767382L103.706009 35.3958798 89.819485 35.3958798C89.7802575 39.3186266 89.74103 40.613133 89.4664378 43.4767382L103.706009 43.4767382zM103.706009 34.572103L103.706009 26.5696996 89.8979399 26.5696996C89.8979399 29.4725322 89.8979399 29.4725322 89.8587124 34.572103L103.706009 34.572103zM137.284721 32.6891845L139.363777 32.6891845C140.305236 31.5908155 140.619056 31.2377682 141.521288 30.1001717 142.933476 31.2769957 143.364979 31.6692704 144.816395 32.8853219 144.934077 33.0422318 145.012532 33.1206867 145.012532 33.1991416 145.012532 33.3560515 144.816395 33.5129614 144.58103 33.5129614L137.284721 33.5129614 137.284721 38.6517597 139.442232 38.6517597C140.501373 37.3964807 140.501373 37.3964807 141.63897 36.1019742 143.247296 37.3180258 143.718026 37.7103004 145.247897 38.9263519 145.404807 39.0832618 145.483262 39.2009442 145.483262 39.2793991 145.483262 39.3970815 145.365579 39.4755365 145.130215 39.4755365L129.164635 39.4755365C128.340858 39.4755365 127.830901 39.5147639 126.732532 39.7501288L126.340258 38.2987124C127.438627 38.5340773 128.419313 38.6517597 129.164635 38.6517597L133.283519 38.6517597 133.283519 33.5129614 129.988412 33.5129614C129.164635 33.5129614 128.654678 33.5521888 127.634764 33.7483262L127.281717 32.3361373C128.380086 32.5715021 129.24309 32.6891845 129.909957 32.6891845L133.283519 32.6891845 133.283519 30.963176C133.283519 29.707897 133.244292 29.1979399 133.126609 27.9034335 137.676996 28.3349356 137.873133 28.3741631 138.38309 28.5703004 138.69691 28.6879828 138.893047 28.8448927 138.893047 29.04103 138.893047 29.3548498 138.579227 29.5509871 137.284721 30.0217167L137.284721 32.6891845zM117.239485 59.56L116.925665 59.2854077C119.200858 55.6372532 120.220773 52.6167382 120.809185 47.8702146 121.240687 44.37897 121.554506 38.4948498 121.554506 33.0030043 121.554506 28.5703004 121.476052 25.7459227 121.397597 23.8630043 123.555107 24.8044635 124.182747 25.1182833 126.14412 26.2558798L145.522489 26.2558798C146.581631 25.1967382 146.895451 24.8829185 148.033047 23.8630043 149.484464 24.9613734 149.915966 25.2751931 151.288927 26.3735622 151.641974 26.687382 151.798884 26.8442918 151.798884 27.0796567 151.798884 27.4327039 151.328155 27.8249785 150.269013 28.4133906L150.269013 44.9281545C150.30824 48.6547639 150.30824 48.6547639 150.30824 51.008412 150.347468 53.2443777 150.347468 53.2836052 150.386695 55.0880687 150.269013 57.2063519 149.837511 57.8732189 148.268412 58.5400858 147.326953 58.9323605 145.914764 59.2069528 144.973305 59.2069528 144.620258 59.2069528 144.502575 59.0892704 144.502575 58.6577682 144.463348 57.7555365 144.384893 57.3632618 144.188755 56.9317597 143.678798 55.872618 142.737339 55.4018884 140.422918 54.9703863L140.422918 54.4996567C142.737339 54.6173391 142.737339 54.6173391 145.130215 54.695794L145.247897 54.695794C145.797082 54.695794 146.032446 54.4604292 146.032446 53.9112446L146.032446 27.0796567 125.8303 27.0796567C125.751845 33.4737339 125.712618 37.1218884 125.673391 37.9456652 125.359571 46.1049785 124.496567 49.9492704 122.064464 53.9896996 120.652275 56.3433476 119.436223 57.7555365 117.239485 59.56zM132.381288 51.8714163L132.381288 54.4212017C132.302833 54.9311588 132.18515 55.1272961 131.753648 55.2449785 131.322146 55.3626609 130.302232 55.4411159 129.321545 55.4411159 128.536996 55.4411159 128.340858 55.2449785 128.340858 54.5781116 128.419313 52.263691 128.458541 49.9100429 128.458541 45.7127039 128.458541 44.4574249 128.380086 43.0060086 128.262403 41.0054077 130.223777 41.868412 130.812189 42.1430043 132.695107 43.1629185L138.06927 43.1629185C138.85382 42.2606867 139.089185 41.946867 139.952189 41.0054077 141.207468 41.868412 141.599742 42.1430043 142.815794 43.0844635 143.247296 43.4375107 143.443433 43.6336481 143.443433 43.7905579 143.443433 44.1043777 142.972704 44.5358798 142.227382 44.9281545L142.227382 47.2425751C142.227382 48.4586266 142.227382 49.753133 142.305837 52.8128755 142.266609 53.7935622 141.79588 53.9504721 139.128412 53.9504721 138.461545 53.9504721 138.265408 53.7935622 138.265408 53.1266953L138.265408 51.8714163 132.381288 51.8714163zM132.381288 43.9866953L132.381288 51.0476395 138.265408 51.0476395 138.265408 43.9866953 132.381288 43.9866953zM178.708927 41.5153648L183.180858 41.5153648C184.514592 39.9854936 184.946094 39.5147639 186.279828 38.1025751 188.241202 39.6324464 188.790386 40.103176 190.634077 41.7115021 190.790987 41.9076395 190.869442 41.9860944 190.869442 42.0645494 190.869442 42.2214592 190.673305 42.3391416 190.398712 42.3391416L178.708927 42.3391416 178.708927 56.3825751 185.024549 56.3825751C186.436738 54.8527039 186.829013 54.3819742 188.201974 52.8913305 190.28103 54.4212017 190.869442 54.9311588 192.791588 56.6963948 192.90927 56.8533047 192.948498 56.9317597 192.948498 56.9709871 192.948498 57.127897 192.791588 57.2063519 192.595451 57.2063519L164.743948 57.2063519C163.645579 57.2063519 162.625665 57.2848069 161.723433 57.4809442L161.488069 56.0295279C162.54721 56.3041202 163.410215 56.3825751 164.743948 56.3825751L174.236996 56.3825751 174.236996 42.3391416 168.823605 42.3391416C167.686009 42.3391416 166.744549 42.4175966 165.763863 42.5745064L165.528498 41.1230901C166.666094 41.3976824 167.607554 41.5153648 168.862833 41.5153648L174.236996 41.5153648 174.236996 35.5527897C174.236996 33.5914163 174.197768 33.0814592 174.040858 31.6300429 178.983519 32.0615451 179.297339 32.1007725 179.807296 32.2969099 180.121116 32.4145923 180.278026 32.5715021 180.278026 32.7676395 180.278026 33.1206867 179.885751 33.3560515 178.708927 33.7090987L178.708927 41.5153648zM177.689013 28.9233476L184.946094 28.9233476C186.044464 27.7465236 187.02515 26.608927 187.966609 25.5890129 190.045665 27.0796567 190.634077 27.5503863 192.516996 29.1587124 192.634678 29.3156223 192.713133 29.4333047 192.713133 29.5117597 192.713133 29.6686695 192.556223 29.7471245 192.281631 29.7471245L164.469356 29.7471245C164.430129 38.3379399 164.077082 43.3590558 163.292532 46.7718455 162.194163 51.4399142 160.193562 54.9311588 156.388498 58.9323605L155.996223 58.6577682C159.016738 52.4206009 159.91897 46.8503004 159.91897 34.3759657 159.91897 30.4532189 159.879742 28.8448927 159.722833 26.1774249 162.076481 27.3150215 162.782575 27.7072961 164.940086 28.9233476L173.295536 28.9233476 173.295536 25.7851502C173.295536 24.8829185 173.256309 24.2945064 173.060172 23 174.354678 23.1176824 175.374592 23.2353648 176.041459 23.2745923 178.51279 23.5099571 179.375794 23.7453219 179.375794 24.2160515 179.375794 24.6083262 178.905064 24.843691 177.689013 25.1967382L177.689013 28.9233476z"/>
  </g>
</svg>
